<?xml version="1.0" encoding="utf-8"?>
<!-- Generator: Adobe Illustrator 23.0.4, SVG Export Plug-In . SVG Version: 6.00 Build 0)  -->
<svg version="1.1" id="Layer_1" xmlns="http://www.w3.org/2000/svg" xmlns:xlink="http://www.w3.org/1999/xlink" x="0px" y="0px"
	 viewBox="0 0 147 147" style="enable-background:new 0 0 147 147;" xml:space="preserve">
<style type="text/css">
	.st0{fill:url(#SVGID_1_);}
	.st1{fill:#F1C40F;}
	.st2{fill:#FFFFFF;}
</style>
<g>
	<g>
		<linearGradient id="SVGID_1_" gradientUnits="userSpaceOnUse" x1="3.0675" y1="73.3898" x2="144.0918" y2="73.3898">
			<stop  offset="0" style="stop-color:#F1C40F"/>
			<stop  offset="1" style="stop-color:#F1C40F;stop-opacity:0.8"/>
		</linearGradient>
		<path class="st0" d="M73.5,143.9c-30.7,0-57.6-19.6-67.1-48.9C-5.5,58,14.9,18.2,51.9,6.3C59,4,66.3,2.9,73.6,2.9
			c30.7,0,57.6,19.6,67.1,48.9c5.8,17.9,4.2,37-4.3,53.8c-8.6,16.8-23.2,29.2-41.1,35C88.2,142.7,80.9,143.9,73.5,143.9z"/>
		<path class="st1" d="M73.6,0C66.1,0,58.5,1.1,51,3.5C12.5,16-8.7,57.4,3.7,95.9c10,31.1,38.8,50.9,69.8,50.9
			c7.5,0,15.1-1.1,22.6-3.6c38.6-12.4,59.8-53.8,47.3-92.4C133.4,19.8,104.6,0,73.6,0L73.6,0z"/>
	</g>
	<g>
		<path class="st2" d="M117.4,80.8c-1.5,9.3-5.8,17.6-12.4,24.2c-3.3,3.3-7,6-11.2,8.1c-10.6,5.4-22.6,6.4-33.9,2.7
			c-10.5-3.4-19.2-10.4-24.7-19.9c7.9-2,34-8.3,45-10.9l11.8-2.9l-76-5.8l0.2,2.3c0.7,7.4,2.7,14.6,6.1,21.2
			c10.2,19.9,30.4,31.4,51.4,31.3c8.8,0,17.8-2,26.2-6.3c5.4-2.8,10.3-6.3,14.5-10.5c9.5-9.5,15.4-22.2,16.6-35.7l0.2-2.5l-2.5,0.5
			C117.7,78.6,117.6,79.6,117.4,80.8z"/>
		<path class="st2" d="M29.8,66c1.5-9.3,5.8-17.6,12.4-24.2c3.3-3.3,7-6,11.2-8.1c10.6-5.4,22.6-6.4,33.9-2.7
			c10.5,3.4,19.2,10.4,24.7,19.9c-7.9,2-34,8.3-45,10.9l-11.8,2.9l76,5.8l-0.2-2.3c-0.7-7.4-2.7-14.6-6.1-21.2
			c-7-13.7-18.9-23.8-33.6-28.6c-14.6-4.7-30.3-3.5-44,3.5c-5.4,2.8-10.3,6.3-14.5,10.5C23.3,42,17.4,54.6,16.2,68.1L15.9,72
			l2.7-0.8C29.4,68,29.6,67.1,29.8,66z"/>
	</g>
</g>
</svg>
