<?xml version="1.0" encoding="utf-8"?>
<!-- Generator: Adobe Illustrator 23.0.4, SVG Export Plug-In . SVG Version: 6.00 Build 0)  -->
<svg version="1.1" id="Layer_1" xmlns="http://www.w3.org/2000/svg" xmlns:xlink="http://www.w3.org/1999/xlink" x="0px" y="0px"
	 viewBox="0 0 489 147" style="enable-background:new 0 0 489 147;" xml:space="preserve">
<style type="text/css">
	.st0{fill:#FFFFFF;}
	.st1{fill:url(#SVGID_1_);}
	.st2{fill:#F1C40F;}
</style>
<g>
	<g>
		<path class="st0" d="M173.8,61c0-13.4,10.8-20,32.3-20c22.7,0,34,5.9,34,17.8c0,1.1-0.4,2-1.1,2.7c-0.7,0.7-1.6,1.1-2.7,1.1h-9.2
			c-3,0-5.5-1.2-7.5-3.8c-2-2.5-6-3.8-12-3.8c-8.2,0-12.3,2-12.3,6c0,1.9,1.6,3.4,4.8,4.7c3.2,1.2,7.1,2.3,11.7,3.3
			c4.6,0.9,9.2,2.1,13.8,3.6c4.6,1.4,8.5,3.8,11.7,6.9c3.2,3.2,4.8,7.2,4.8,12c0,13.4-11.4,20-34.1,20s-34.1-5.9-34.1-17.7
			c0-1.1,0.4-2,1.1-2.8c0.7-0.7,1.6-1.1,2.8-1.1h9.2c3,0,5.5,1.3,7.5,3.8s6,3.8,12,3.8c9.5,0,14.2-2,14.2-6c0-1.9-1.6-3.4-4.8-4.7
			c-3.2-1.2-7.1-2.3-11.7-3.3c-4.6-1-9.2-2.2-13.8-3.6s-8.5-3.7-11.7-6.9C175.4,69.7,173.8,65.7,173.8,61z"/>
		<path class="st0" d="M266.8,116.6l8.1,1.1c5.8,0,9.9-4.3,12.2-12.8c-7,0-12.9-2.1-17.6-6.4c-4.7-4.2-8.8-11.8-12.2-22.6L248.1,46
			c-0.1-0.3-0.2-0.7-0.2-1.1s0.3-1,0.8-1.6s1.3-1,2.3-1h13c1.2,0,2.3,0.4,3.4,1.2s1.8,1.8,2.1,3l8.1,26.3c2,6.4,4.1,10.9,6.2,13.4
			s4.6,3.7,7.4,3.7l12.3-43.4c0.3-1.2,1-2.2,2-3s2.1-1.2,3.3-1.2h13.1c1,0,1.8,0.3,2.3,1s0.7,1.2,0.7,1.6s0,0.8-0.1,1.1l-16.2,57.9
			c-2.9,10.3-6.5,17.6-10.8,21.9c-4.3,4.4-9.8,6.6-16.5,6.6s-11.5-0.2-14.3-0.7s-4.5-1.1-5.2-1.8s-1.1-1.6-1.1-2.5v-6.8
			c0-1.1,0.4-2,1.1-2.8c0.7-0.7,1.6-1.1,2.7-1.1L266.8,116.6L266.8,116.6z"/>
		<path class="st0" d="M333.8,106.4V46c0-1.1,0.4-2,1.1-2.8c0.7-0.7,1.6-1.1,2.7-1.1h13.9c1.1,0,2,0.4,2.7,1.1
			c0.7,0.7,1.1,1.6,1.1,2.8v3.9c7.1-6,14.7-9,22.7-9s14.6,2.4,19.6,7.3s7.6,12.4,7.6,22.5v35.6c0,1.1-0.4,2-1.1,2.7
			s-1.6,1.1-2.8,1.1h-13.8c-1.1,0-2-0.4-2.7-1.1s-1.1-1.6-1.1-2.7V70.8c0-9.9-3.9-14.8-11.8-14.8c-5.2,0-10.7,3-16.6,8.9v41.5
			c0,1.1-0.4,2-1.1,2.7s-1.6,1.1-2.7,1.1h-13.9c-1.1,0-2-0.4-2.7-1.1C334.2,108.3,333.8,107.4,333.8,106.4z"/>
		<path class="st0" d="M453.3,111.4c-11.6,0-20.6-3-27.1-8.9c-6.4-6-9.7-14.7-9.7-26.3s3.2-20.3,9.6-26.3s15.3-9,26.8-9
			c11.4,0,20.2,1.8,26.4,5.5c6.1,3.6,9.2,9,9.2,16.1c0,1.1-0.4,2-1.1,2.7s-1.6,1.1-2.8,1.1h-9.2c-2.8,0-5.2-1.5-7.1-4.5
			c-2.4-3.9-6.7-5.8-12.9-5.8c-6.2,0-10.5,1.6-13,4.7c-2.5,3.2-3.7,8.3-3.7,15.5s1.3,12.3,3.8,15.5s7,4.8,13.3,4.8
			s10.7-1.9,13.1-5.8c1.9-3.1,4.3-4.6,7.1-4.6h9.2c1.1,0,2,0.4,2.8,1.1c0.7,0.7,1.1,1.6,1.1,2.7c0,7.1-3.1,12.5-9.2,16.1
			C473.8,109.6,464.9,111.4,453.3,111.4z"/>
	</g>
	<g>
		<g>
			
				<linearGradient id="SVGID_1_" gradientUnits="userSpaceOnUse" x1="3.0065" y1="74.6" x2="144.1402" y2="74.6" gradientTransform="matrix(1 0 0 -1 0 148)">
				<stop  offset="0" style="stop-color:#F1C40F"/>
				<stop  offset="1" style="stop-color:#F1C40F;stop-opacity:0.8"/>
			</linearGradient>
			<path class="st1" d="M73.5,143.9c-30.7,0-57.6-19.6-67.1-48.9C-5.5,58,14.9,18.2,51.9,6.3C59,4,66.3,2.9,73.6,2.9
				c30.7,0,57.6,19.6,67.1,48.9c5.8,17.9,4.2,37-4.3,53.8c-8.6,16.8-23.2,29.2-41.1,35C88.2,142.7,80.9,143.9,73.5,143.9z"/>
			<path class="st2" d="M73.6,0C66.1,0,58.5,1.1,51,3.5C12.5,16-8.7,57.4,3.7,95.9c10,31.1,38.8,50.9,69.8,50.9
				c7.5,0,15.1-1.1,22.6-3.6c38.6-12.4,59.8-53.8,47.3-92.4C133.4,19.8,104.6,0,73.6,0L73.6,0z"/>
		</g>
		<g>
			<path class="st0" d="M117.4,80.8c-1.5,9.3-5.8,17.6-12.4,24.2c-3.3,3.3-7,6-11.2,8.1c-10.6,5.4-22.6,6.4-33.9,2.7
				c-10.5-3.4-19.2-10.4-24.7-19.9c7.9-2,34-8.3,45-10.9L92,82.1l-76-5.8l0.2,2.3c0.7,7.4,2.7,14.6,6.1,21.2
				c10.2,19.9,30.4,31.4,51.4,31.3c8.8,0,17.8-2,26.2-6.3c5.4-2.8,10.3-6.3,14.5-10.5c9.5-9.5,15.4-22.2,16.6-35.7l0.2-2.5l-2.5,0.5
				C117.7,78.6,117.6,79.6,117.4,80.8z"/>
			<path class="st0" d="M29.8,66c1.5-9.3,5.8-17.6,12.4-24.2c3.3-3.3,7-6,11.2-8.1C64,28.3,76,27.3,87.3,31
				c10.5,3.4,19.2,10.4,24.7,19.9c-7.9,2-34,8.3-45,10.9l-11.8,2.9l76,5.8l-0.2-2.3c-0.7-7.4-2.7-14.6-6.1-21.2
				c-7-13.7-18.9-23.8-33.6-28.6c-14.6-4.7-30.3-3.5-44,3.5c-5.4,2.8-10.3,6.3-14.5,10.5C23.3,42,17.4,54.6,16.2,68.1L15.9,72
				l2.7-0.8C29.4,68,29.6,67.1,29.8,66z"/>
		</g>
	</g>
</g>
</svg>
